G04 #@! TF.GenerationSoftware,KiCad,Pcbnew,5.0.2-bee76a0~70~ubuntu18.04.1*
G04 #@! TF.CreationDate,2019-02-18T17:05:05+09:00*
G04 #@! TF.ProjectId,MRR_ESPA,4d52525f-4553-4504-912e-6b696361645f,v0.9*
G04 #@! TF.SameCoordinates,Original*
G04 #@! TF.FileFunction,Legend,Bot*
G04 #@! TF.FilePolarity,Positive*
%FSLAX46Y46*%
G04 Gerber Fmt 4.6, Leading zero omitted, Abs format (unit mm)*
G04 Created by KiCad (PCBNEW 5.0.2-bee76a0~70~ubuntu18.04.1) date Mon 18 Feb 2019 05:05:05 PM JST*
%MOMM*%
%LPD*%
G01*
G04 APERTURE LIST*
%ADD10C,0.200000*%
G04 APERTURE END LIST*
D10*
X97655952Y-99902380D02*
X98132142Y-99902380D01*
X98132142Y-98902380D01*
X97322619Y-99902380D02*
X97322619Y-99235714D01*
X97322619Y-98902380D02*
X97370238Y-98950000D01*
X97322619Y-98997619D01*
X97275000Y-98950000D01*
X97322619Y-98902380D01*
X97322619Y-98997619D01*
X96417857Y-99854761D02*
X96513095Y-99902380D01*
X96703571Y-99902380D01*
X96798809Y-99854761D01*
X96846428Y-99807142D01*
X96894047Y-99711904D01*
X96894047Y-99426190D01*
X96846428Y-99330952D01*
X96798809Y-99283333D01*
X96703571Y-99235714D01*
X96513095Y-99235714D01*
X96417857Y-99283333D01*
X95608333Y-99854761D02*
X95703571Y-99902380D01*
X95894047Y-99902380D01*
X95989285Y-99854761D01*
X96036904Y-99759523D01*
X96036904Y-99378571D01*
X95989285Y-99283333D01*
X95894047Y-99235714D01*
X95703571Y-99235714D01*
X95608333Y-99283333D01*
X95560714Y-99378571D01*
X95560714Y-99473809D01*
X96036904Y-99569047D01*
X95132142Y-99235714D02*
X95132142Y-99902380D01*
X95132142Y-99330952D02*
X95084523Y-99283333D01*
X94989285Y-99235714D01*
X94846428Y-99235714D01*
X94751190Y-99283333D01*
X94703571Y-99378571D01*
X94703571Y-99902380D01*
X94275000Y-99854761D02*
X94179761Y-99902380D01*
X93989285Y-99902380D01*
X93894047Y-99854761D01*
X93846428Y-99759523D01*
X93846428Y-99711904D01*
X93894047Y-99616666D01*
X93989285Y-99569047D01*
X94132142Y-99569047D01*
X94227380Y-99521428D01*
X94275000Y-99426190D01*
X94275000Y-99378571D01*
X94227380Y-99283333D01*
X94132142Y-99235714D01*
X93989285Y-99235714D01*
X93894047Y-99283333D01*
X93036904Y-99854761D02*
X93132142Y-99902380D01*
X93322619Y-99902380D01*
X93417857Y-99854761D01*
X93465476Y-99759523D01*
X93465476Y-99378571D01*
X93417857Y-99283333D01*
X93322619Y-99235714D01*
X93132142Y-99235714D01*
X93036904Y-99283333D01*
X92989285Y-99378571D01*
X92989285Y-99473809D01*
X93465476Y-99569047D01*
X92132142Y-99902380D02*
X92132142Y-98902380D01*
X92132142Y-99854761D02*
X92227380Y-99902380D01*
X92417857Y-99902380D01*
X92513095Y-99854761D01*
X92560714Y-99807142D01*
X92608333Y-99711904D01*
X92608333Y-99426190D01*
X92560714Y-99330952D01*
X92513095Y-99283333D01*
X92417857Y-99235714D01*
X92227380Y-99235714D01*
X92132142Y-99283333D01*
X90465476Y-99235714D02*
X90465476Y-99902380D01*
X90894047Y-99235714D02*
X90894047Y-99759523D01*
X90846428Y-99854761D01*
X90751190Y-99902380D01*
X90608333Y-99902380D01*
X90513095Y-99854761D01*
X90465476Y-99807142D01*
X89989285Y-99235714D02*
X89989285Y-99902380D01*
X89989285Y-99330952D02*
X89941666Y-99283333D01*
X89846428Y-99235714D01*
X89703571Y-99235714D01*
X89608333Y-99283333D01*
X89560714Y-99378571D01*
X89560714Y-99902380D01*
X88655952Y-99902380D02*
X88655952Y-98902380D01*
X88655952Y-99854761D02*
X88751190Y-99902380D01*
X88941666Y-99902380D01*
X89036904Y-99854761D01*
X89084523Y-99807142D01*
X89132142Y-99711904D01*
X89132142Y-99426190D01*
X89084523Y-99330952D01*
X89036904Y-99283333D01*
X88941666Y-99235714D01*
X88751190Y-99235714D01*
X88655952Y-99283333D01*
X87798809Y-99854761D02*
X87894047Y-99902380D01*
X88084523Y-99902380D01*
X88179761Y-99854761D01*
X88227380Y-99759523D01*
X88227380Y-99378571D01*
X88179761Y-99283333D01*
X88084523Y-99235714D01*
X87894047Y-99235714D01*
X87798809Y-99283333D01*
X87751190Y-99378571D01*
X87751190Y-99473809D01*
X88227380Y-99569047D01*
X87322619Y-99902380D02*
X87322619Y-99235714D01*
X87322619Y-99426190D02*
X87275000Y-99330952D01*
X87227380Y-99283333D01*
X87132142Y-99235714D01*
X87036904Y-99235714D01*
X85370238Y-99807142D02*
X85417857Y-99854761D01*
X85560714Y-99902380D01*
X85655952Y-99902380D01*
X85798809Y-99854761D01*
X85894047Y-99759523D01*
X85941666Y-99664285D01*
X85989285Y-99473809D01*
X85989285Y-99330952D01*
X85941666Y-99140476D01*
X85894047Y-99045238D01*
X85798809Y-98950000D01*
X85655952Y-98902380D01*
X85560714Y-98902380D01*
X85417857Y-98950000D01*
X85370238Y-98997619D01*
X84941666Y-99378571D02*
X84608333Y-99378571D01*
X84465476Y-99902380D02*
X84941666Y-99902380D01*
X84941666Y-98902380D01*
X84465476Y-98902380D01*
X83465476Y-99902380D02*
X83798809Y-99426190D01*
X84036904Y-99902380D02*
X84036904Y-98902380D01*
X83655952Y-98902380D01*
X83560714Y-98950000D01*
X83513095Y-98997619D01*
X83465476Y-99092857D01*
X83465476Y-99235714D01*
X83513095Y-99330952D01*
X83560714Y-99378571D01*
X83655952Y-99426190D01*
X84036904Y-99426190D01*
X83036904Y-99902380D02*
X83036904Y-98902380D01*
X82465476Y-99902380D01*
X82465476Y-98902380D01*
X81036904Y-98902380D02*
X80846428Y-98902380D01*
X80751190Y-98950000D01*
X80655952Y-99045238D01*
X80608333Y-99235714D01*
X80608333Y-99569047D01*
X80655952Y-99759523D01*
X80751190Y-99854761D01*
X80846428Y-99902380D01*
X81036904Y-99902380D01*
X81132142Y-99854761D01*
X81227380Y-99759523D01*
X81275000Y-99569047D01*
X81275000Y-99235714D01*
X81227380Y-99045238D01*
X81132142Y-98950000D01*
X81036904Y-98902380D01*
X80179761Y-99902380D02*
X80179761Y-98902380D01*
X80179761Y-99378571D02*
X79608333Y-99378571D01*
X79608333Y-99902380D02*
X79608333Y-98902380D01*
X78655952Y-99902380D02*
X79132142Y-99902380D01*
X79132142Y-98902380D01*
X77655952Y-99235714D02*
X77417857Y-99902380D01*
X77179761Y-99235714D01*
X76798809Y-99807142D02*
X76751190Y-99854761D01*
X76798809Y-99902380D01*
X76846428Y-99854761D01*
X76798809Y-99807142D01*
X76798809Y-99902380D01*
X75798809Y-99902380D02*
X76370238Y-99902380D01*
X76084523Y-99902380D02*
X76084523Y-98902380D01*
X76179761Y-99045238D01*
X76275000Y-99140476D01*
X76370238Y-99188095D01*
X75370238Y-99807142D02*
X75322619Y-99854761D01*
X75370238Y-99902380D01*
X75417857Y-99854761D01*
X75370238Y-99807142D01*
X75370238Y-99902380D01*
X74941666Y-98997619D02*
X74894047Y-98950000D01*
X74798809Y-98902380D01*
X74560714Y-98902380D01*
X74465476Y-98950000D01*
X74417857Y-98997619D01*
X74370238Y-99092857D01*
X74370238Y-99188095D01*
X74417857Y-99330952D01*
X74989285Y-99902380D01*
X74370238Y-99902380D01*
X91791666Y-69827380D02*
X92125000Y-69351190D01*
X92363095Y-69827380D02*
X92363095Y-68827380D01*
X91982142Y-68827380D01*
X91886904Y-68875000D01*
X91839285Y-68922619D01*
X91791666Y-69017857D01*
X91791666Y-69160714D01*
X91839285Y-69255952D01*
X91886904Y-69303571D01*
X91982142Y-69351190D01*
X92363095Y-69351190D01*
X91458333Y-68827380D02*
X90791666Y-69827380D01*
X90791666Y-68827380D02*
X91458333Y-69827380D01*
X92511904Y-66327380D02*
X91940476Y-66327380D01*
X92226190Y-67327380D02*
X92226190Y-66327380D01*
X91702380Y-66327380D02*
X91035714Y-67327380D01*
X91035714Y-66327380D02*
X91702380Y-67327380D01*
X85260714Y-69927380D02*
X85260714Y-68927380D01*
X84689285Y-69927380D01*
X84689285Y-68927380D01*
X83641666Y-69832142D02*
X83689285Y-69879761D01*
X83832142Y-69927380D01*
X83927380Y-69927380D01*
X84070238Y-69879761D01*
X84165476Y-69784523D01*
X84213095Y-69689285D01*
X84260714Y-69498809D01*
X84260714Y-69355952D01*
X84213095Y-69165476D01*
X84165476Y-69070238D01*
X84070238Y-68975000D01*
X83927380Y-68927380D01*
X83832142Y-68927380D01*
X83689285Y-68975000D01*
X83641666Y-69022619D01*
X85260714Y-67277380D02*
X85260714Y-66277380D01*
X84689285Y-67277380D01*
X84689285Y-66277380D01*
X83641666Y-67182142D02*
X83689285Y-67229761D01*
X83832142Y-67277380D01*
X83927380Y-67277380D01*
X84070238Y-67229761D01*
X84165476Y-67134523D01*
X84213095Y-67039285D01*
X84260714Y-66848809D01*
X84260714Y-66705952D01*
X84213095Y-66515476D01*
X84165476Y-66420238D01*
X84070238Y-66325000D01*
X83927380Y-66277380D01*
X83832142Y-66277380D01*
X83689285Y-66325000D01*
X83641666Y-66372619D01*
X84786904Y-63750000D02*
X84882142Y-63702380D01*
X85025000Y-63702380D01*
X85167857Y-63750000D01*
X85263095Y-63845238D01*
X85310714Y-63940476D01*
X85358333Y-64130952D01*
X85358333Y-64273809D01*
X85310714Y-64464285D01*
X85263095Y-64559523D01*
X85167857Y-64654761D01*
X85025000Y-64702380D01*
X84929761Y-64702380D01*
X84786904Y-64654761D01*
X84739285Y-64607142D01*
X84739285Y-64273809D01*
X84929761Y-64273809D01*
X84310714Y-64702380D02*
X84310714Y-63702380D01*
X83739285Y-64702380D01*
X83739285Y-63702380D01*
X83263095Y-64702380D02*
X83263095Y-63702380D01*
X83025000Y-63702380D01*
X82882142Y-63750000D01*
X82786904Y-63845238D01*
X82739285Y-63940476D01*
X82691666Y-64130952D01*
X82691666Y-64273809D01*
X82739285Y-64464285D01*
X82786904Y-64559523D01*
X82882142Y-64654761D01*
X83025000Y-64702380D01*
X83263095Y-64702380D01*
X92911904Y-63900000D02*
X93007142Y-63852380D01*
X93150000Y-63852380D01*
X93292857Y-63900000D01*
X93388095Y-63995238D01*
X93435714Y-64090476D01*
X93483333Y-64280952D01*
X93483333Y-64423809D01*
X93435714Y-64614285D01*
X93388095Y-64709523D01*
X93292857Y-64804761D01*
X93150000Y-64852380D01*
X93054761Y-64852380D01*
X92911904Y-64804761D01*
X92864285Y-64757142D01*
X92864285Y-64423809D01*
X93054761Y-64423809D01*
X92435714Y-64852380D02*
X92435714Y-63852380D01*
X91864285Y-64852380D01*
X91864285Y-63852380D01*
X91388095Y-64852380D02*
X91388095Y-63852380D01*
X91150000Y-63852380D01*
X91007142Y-63900000D01*
X90911904Y-63995238D01*
X90864285Y-64090476D01*
X90816666Y-64280952D01*
X90816666Y-64423809D01*
X90864285Y-64614285D01*
X90911904Y-64709523D01*
X91007142Y-64804761D01*
X91150000Y-64852380D01*
X91388095Y-64852380D01*
X91790476Y-61252380D02*
X92266666Y-61252380D01*
X92314285Y-61728571D01*
X92266666Y-61680952D01*
X92171428Y-61633333D01*
X91933333Y-61633333D01*
X91838095Y-61680952D01*
X91790476Y-61728571D01*
X91742857Y-61823809D01*
X91742857Y-62061904D01*
X91790476Y-62157142D01*
X91838095Y-62204761D01*
X91933333Y-62252380D01*
X92171428Y-62252380D01*
X92266666Y-62204761D01*
X92314285Y-62157142D01*
X91457142Y-61252380D02*
X91123809Y-62252380D01*
X90790476Y-61252380D01*
X84565476Y-61177380D02*
X85041666Y-61177380D01*
X85089285Y-61653571D01*
X85041666Y-61605952D01*
X84946428Y-61558333D01*
X84708333Y-61558333D01*
X84613095Y-61605952D01*
X84565476Y-61653571D01*
X84517857Y-61748809D01*
X84517857Y-61986904D01*
X84565476Y-62082142D01*
X84613095Y-62129761D01*
X84708333Y-62177380D01*
X84946428Y-62177380D01*
X85041666Y-62129761D01*
X85089285Y-62082142D01*
X84232142Y-61177380D02*
X83898809Y-62177380D01*
X83565476Y-61177380D01*
M02*
