M48
;DRILL file {KiCad 5.0.2-bee76a0~70~ubuntu18.04.1} date Mon 18 Feb 2019 05:05:02 PM JST
;FORMAT={-:-/ absolute / inch / decimal}
FMAT,2
INCH,TZ
T1C0.0118
T2C0.0157
T3C0.0236
T4C0.0315
T5C0.0335
T6C0.0394
T7C0.0400
T8C0.0512
%
G90
G05
T1
X4.2096Y-1.9744
X4.2096Y-2.0217
X4.253Y-1.9744
X4.253Y-2.0217
X4.3041Y-1.9744
X4.3041Y-2.0217
X4.3514Y-1.9744
X4.3514Y-2.0217
T2
X1.8189Y-2.8346
X1.8189Y-2.9646
X1.8346Y-1.9252
X1.8346Y-4.7087
X1.8858Y-1.7756
X1.9488Y-3.311
X1.9606Y-3.122
X1.9893Y-1.7863
X2.0186Y-1.757
X2.0354Y-2.9213
X2.0354Y-2.9803
X2.0354Y-3.3189
X2.0535Y-2.1598
X2.0539Y-2.2118
X2.0587Y-2.2685
X2.1181Y-1.5315
X2.1272Y-2.1728
X2.128Y-2.2685
X2.1327Y-2.215
X2.1827Y-2.1665
X2.1906Y-2.2646
X2.1913Y-2.2142
X2.2441Y-1.6575
X2.2874Y-3.8465
X2.3425Y-3.0433
X2.3465Y-3.3031
X2.3583Y-3.3976
X2.3583Y-3.8465
X2.5157Y-3.8031
X2.5709Y-3.9134
X2.6024Y-1.6693
X2.6535Y-2.9213
X2.6654Y-4.1378
X2.6732Y-4.8425
X2.7244Y-2.0197
X2.7402Y-4.7362
X2.752Y-4.3937
X2.7638Y-4.3268
X2.7874Y-4.8346
X2.9055Y-4.7913
X2.937Y-4.3189
X2.9843Y-2.2087
X3.1102Y-3.4488
X3.1811Y-1.7244
X3.2283Y-1.6772
X3.2441Y-2.2047
X3.2874Y-2.1693
X3.2992Y-3.3543
X3.3465Y-2.8425
X3.3465Y-3.3386
X3.3583Y-1.7677
X3.374Y-2.937
X3.3937Y-3.3425
X3.4134Y-2.8504
X3.4409Y-3.3268
X3.446Y-2.1603
X3.4567Y-2.9567
X3.4752Y-2.1311
X3.4803Y-2.8504
X3.5Y-3.3425
X3.5039Y-1.5276
X3.5039Y-4.7244
X3.5197Y-4.8504
X3.5354Y-2.0709
X3.5394Y-2.2559
X3.5669Y-3.626
X3.5906Y-4.7638
X3.5945Y-3.3386
X3.5945Y-4.3937
X3.6063Y-4.2323
X3.6102Y-3.5591
X3.6169Y-2.8429
X3.626Y-3.6181
X3.6417Y-1.9331
X3.6417Y-4.8465
X3.6654Y-2.4331
X3.6768Y-3.2449
X3.6819Y-2.6504
X3.7059Y-3.2075
X3.7165Y-3.5354
X3.7205Y-2.6929
X3.7362Y-3.126
X3.7402Y-2.4616
X3.7402Y-3.4173
X3.7441Y-4.8031
X3.748Y-2.8622
X3.748Y-2.9606
X3.7654Y-1.9047
X3.7756Y-2.4331
X3.7756Y-3.3268
X3.7835Y-3.2677
X3.7913Y-2.878
X3.8031Y-2.2559
X3.813Y-3.0965
X3.813Y-3.1545
X3.8197Y-3.0577
X3.8425Y-2.9449
X3.8425Y-3.4528
X3.8504Y-2.1457
X3.8622Y-3.8504
X3.865Y-3.1453
X3.8898Y-2.0945
X3.8937Y-1.9567
X3.9055Y-2.4646
X3.9094Y-3.5394
X3.9173Y-4.1732
X3.9421Y-3.1504
X3.9715Y-2.6233
X3.9783Y-2.674
X3.9882Y-3.7244
X4.0157Y-3.9409
X4.0165Y-3.4571
X4.0169Y-3.1496
X4.0197Y-1.937
X4.0236Y-2.2323
X4.0512Y-1.8425
X4.0709Y-2.9409
X4.0748Y-4.2559
X4.0827Y-2.2874
X4.0855Y-2.2019
X4.0906Y-2.6063
X4.0984Y-4.0236
X4.0984Y-4.3976
X4.1102Y-4.2362
X4.1106Y-2.824
X4.1203Y-3.1471
X4.1575Y-2.8465
X4.1575Y-2.937
X4.1693Y-3.9685
X4.185Y-2.4134
X4.2008Y-2.5079
X4.2008Y-4.185
X4.2047Y-2.6299
X4.2087Y-2.8465
X4.2205Y-4.311
X4.2244Y-4.3937
X4.2913Y-3.2205
X4.3622Y-2.4173
X4.3701Y-4.8425
X4.378Y-2.6496
X4.3883Y-2.7151
X4.4094Y-4.3031
X4.4213Y-3.4252
X4.4252Y-1.7301
X4.4252Y-4.7441
X4.4488Y-2.7087
X4.4488Y-4.8465
X4.4528Y-2.6496
X4.4606Y-5.1299
X4.4803Y-4.3819
X4.5079Y-3.3858
X4.5157Y-2.3622
X4.5197Y-3.3189
X4.5276Y-3.126
X4.5315Y-3.0591
X4.5315Y-3.1929
X4.5315Y-3.2677
X4.5669Y-2.6496
X4.5669Y-3.3189
X4.5669Y-3.3898
X4.5748Y-4.7953
X4.5866Y-3.0591
X4.5866Y-3.122
X4.5945Y-3.189
X4.5945Y-3.2677
X4.6102Y-3.7559
X4.6102Y-3.7992
X4.6181Y-3.689
X4.622Y-3.8583
X4.622Y-4.122
X4.622Y-4.1772
X4.626Y-3.3228
X4.626Y-3.3898
X4.626Y-4.0591
X4.626Y-4.2323
X4.6299Y-2.4921
X4.6339Y-3.0591
X4.6457Y-3.122
X4.6496Y-3.189
X4.6496Y-3.2638
X4.6535Y-2.689
X4.6614Y-4.1142
X4.6654Y-2.9409
X4.6654Y-4.1693
X4.6732Y-3.8031
X4.6732Y-4.2362
X4.6772Y-3.752
X4.6811Y-3.315
X4.6811Y-3.3819
X4.6811Y-3.8622
X4.685Y-3.0551
X4.685Y-3.689
X4.685Y-4.0591
X4.6929Y-2.4626
X4.6969Y-3.122
X4.6969Y-3.185
X4.7008Y-3.2559
X4.7205Y-3.3189
X4.7205Y-4.122
X4.7244Y-3.3858
X4.7362Y-4.1811
X4.7402Y-3.752
X4.7402Y-3.7992
X4.7402Y-4.2323
X4.7441Y-3.0551
X4.7441Y-3.5
X4.7441Y-3.8661
X4.748Y-3.126
X4.748Y-3.689
X4.752Y-3.2598
X4.7559Y-3.189
X4.7598Y-3.3228
X4.7717Y-3.3858
X4.7717Y-4.0512
X4.7874Y-4.1181
X4.7913Y-4.1772
X4.7913Y-4.2244
X4.7953Y-3.0551
X4.7953Y-3.126
X4.7953Y-3.189
X4.7992Y-3.2559
X4.8031Y-3.811
X4.8071Y-3.6929
X4.8071Y-3.7559
X4.8071Y-3.8622
X4.811Y-3.3189
X4.811Y-3.3189
X4.811Y-3.3189
X4.8228Y-3.3858
X4.8228Y-4.0709
X4.8425Y-3.0551
X4.8425Y-3.1181
X4.8425Y-3.189
X4.8425Y-3.2559
X4.878Y-3.7047
X4.8937Y-3.7717
X4.9331Y-3.0551
X4.937Y-3.7047
X4.9646Y-3.311
X4.9685Y-3.7638
X4.9724Y-2.4803
X4.9764Y-3.2402
X4.9803Y-3.1339
X5.0079Y-3.0551
X5.0157Y-4.0866
X5.0236Y-3.3701
X5.0236Y-3.8031
X5.0394Y-3.1339
X5.0827Y-3.2283
X5.0866Y-3.063
X5.0866Y-3.1339
X5.0866Y-3.315
X5.0945Y-2.6693
X5.1181Y-2.9173
X5.1496Y-2.3898
X5.1496Y-3.0709
X5.1535Y-3.1417
X5.1614Y-3.2559
X5.1654Y-3.3425
X5.1693Y-1.9173
X5.4606Y-4.6457
T4
X3.67Y-4.46
X3.67Y-4.96
X3.77Y-4.46
X3.77Y-4.96
X3.87Y-4.46
X3.87Y-4.96
X3.97Y-4.46
X3.97Y-4.96
X4.07Y-4.46
X4.07Y-4.96
X4.17Y-4.46
X4.17Y-4.96
X4.27Y-4.46
X4.27Y-4.96
X4.37Y-4.46
X4.37Y-4.96
X1.97Y-4.46
X1.97Y-4.96
X2.07Y-4.46
X2.07Y-4.96
X2.17Y-4.46
X2.17Y-4.96
X2.27Y-4.46
X2.27Y-4.96
X2.37Y-4.46
X2.37Y-4.96
X2.47Y-4.46
X2.47Y-4.96
X2.57Y-4.46
X2.57Y-4.96
X2.67Y-4.46
X2.67Y-4.96
X4.51Y-4.46
X4.51Y-4.96
X4.61Y-4.46
X4.61Y-4.96
X4.71Y-4.46
X4.71Y-4.96
X4.81Y-4.46
X4.81Y-4.96
X4.91Y-4.46
X4.91Y-4.96
X5.01Y-4.46
X5.01Y-4.96
X5.11Y-4.46
X5.11Y-4.96
X5.21Y-4.46
X5.21Y-4.96
X2.82Y-4.46
X2.82Y-4.96
X2.92Y-4.46
X2.92Y-4.96
X3.02Y-4.46
X3.02Y-4.96
X3.12Y-4.46
X3.12Y-4.96
X3.22Y-4.46
X3.22Y-4.96
X3.32Y-4.46
X3.32Y-4.96
X3.42Y-4.46
X3.42Y-4.96
X3.52Y-4.46
X3.52Y-4.96
T5
X3.1816Y-1.6276
X3.3784Y-1.6276
T6
X2.2569Y-4.0566
X2.3569Y-4.0566
X2.4569Y-4.0566
X3.219Y-4.6087
X3.219Y-4.7087
X3.219Y-4.8087
X1.9055Y-3.7835
X1.9055Y-3.8835
X5.215Y-5.2008
X5.315Y-5.2008
X5.6152Y-4.8553
X5.6152Y-4.9553
X5.01Y-4.6076
X5.01Y-4.7076
X5.01Y-4.8076
X2.5699Y-4.6093
X2.5699Y-4.7093
X2.5699Y-4.8093
X3.02Y-5.2
X3.12Y-5.2
X3.22Y-5.2
X3.32Y-5.2
X2.2569Y-4.2566
X2.3569Y-4.2566
X2.4569Y-4.2566
X2.269Y-4.6097
X2.269Y-4.7097
X2.269Y-4.8097
X4.71Y-5.2
X4.81Y-5.2
X4.91Y-5.2
X5.01Y-5.2
X3.959Y-4.6087
X3.959Y-4.7087
X3.959Y-4.8087
X3.419Y-4.6087
X3.419Y-4.7087
X3.419Y-4.8087
X3.319Y-4.6087
X3.319Y-4.7087
X3.319Y-4.8087
X2.2569Y-4.1566
X2.3569Y-4.1566
X2.4569Y-4.1566
X2.29Y-1.6006
X2.39Y-1.6006
X2.49Y-1.6006
X2.59Y-1.6006
X2.69Y-1.6006
X2.79Y-1.6006
X2.89Y-1.6006
X2.99Y-1.6006
X3.1407Y-4.2343
X3.2407Y-4.2343
X3.3407Y-4.2343
X3.4407Y-4.2343
X3.0984Y-1.9606
X3.0984Y-2.0606
X3.0984Y-2.1606
X3.0984Y-2.2606
X3.0984Y-2.3606
X3.0984Y-2.4606
X3.0984Y-2.5606
X3.0984Y-2.6606
X3.0984Y-2.7606
X3.0984Y-2.8606
X2.369Y-4.6097
X2.369Y-4.7097
X2.369Y-4.8097
X2.2569Y-3.9566
X2.3569Y-3.9566
X2.4569Y-3.9566
X2.17Y-5.2
X2.27Y-5.2
X2.37Y-5.2
X2.47Y-5.2
X4.91Y-4.6076
X4.91Y-4.7076
X4.91Y-4.8076
X4.81Y-4.6076
X4.81Y-4.7076
X4.81Y-4.8076
X4.269Y-4.6087
X4.269Y-4.7087
X4.269Y-4.8087
X1.9Y-2.7756
X2.Y-2.7756
X2.1Y-2.7756
X2.2Y-2.7756
X2.3Y-2.7756
X2.4Y-2.7756
X2.5Y-2.7756
X2.6Y-2.7756
X2.7Y-2.7756
X2.8Y-2.7756
X4.169Y-4.6087
X4.169Y-4.7087
X4.169Y-4.8087
X5.6142Y-4.5531
X5.6142Y-4.6531
X3.119Y-4.6087
X3.119Y-4.7087
X3.119Y-4.8087
X5.11Y-4.6076
X5.11Y-4.7076
X5.11Y-4.8076
X4.069Y-4.6087
X4.069Y-4.7087
X4.069Y-4.8087
X3.87Y-5.2
X3.97Y-5.2
X4.07Y-5.2
X4.17Y-5.2
X3.35Y-3.05
X3.45Y-3.05
X3.55Y-3.05
X3.65Y-3.05
X1.9055Y-3.5787
X1.9055Y-3.6787
X2.469Y-4.6097
X2.469Y-4.7097
X2.469Y-4.8097
T7
X3.42Y-2.43
X3.42Y-2.53
X3.42Y-2.63
X3.42Y-2.73
X3.52Y-2.43
X3.52Y-2.53
X3.52Y-2.63
X3.52Y-2.73
T8
X5.4281Y-3.498
X5.4281Y-3.698
X5.4281Y-2.6752
X5.4281Y-2.8752
X5.4281Y-3.0752
X5.4281Y-3.2752
X5.4281Y-3.9203
X5.4281Y-4.1203
T3
X3.1422Y-1.5351G85X3.1422Y-1.5075
G05
X3.4178Y-1.5075G85X3.4178Y-1.5351
G05
T0
M30
