M48
;DRILL file {KiCad 5.0.2-bee76a0~70~ubuntu18.04.1} date Fri 25 Jan 2019 09:39:09 PM JST
;FORMAT={-:-/ absolute / inch / decimal}
FMAT,2
INCH,TZ
T1C0.0118
T2C0.0157
T3C0.0236
T4C0.0315
T5C0.0335
T6C0.0394
T7C0.0400
T8C0.0512
%
G90
G05
T1
X4.2096Y-1.9744
X4.2096Y-2.0217
X4.253Y-1.9744
X4.253Y-2.0217
X4.3041Y-1.9744
X4.3041Y-2.0217
X4.3514Y-1.9744
X4.3514Y-2.0217
T2
X1.8287Y-1.7707
X1.8593Y-2.4252
X1.9065Y-2.435
X2.0169Y-1.9674
X2.0461Y-1.9381
X2.0591Y-2.1732
X2.0591Y-2.2402
X2.0591Y-2.3031
X2.118Y-1.6996
X2.122Y-2.1732
X2.1299Y-2.2362
X2.1299Y-2.2953
X2.185Y-2.1732
X2.185Y-2.2244
X2.1929Y-2.2913
X2.2952Y-2.9129
X2.3679Y-2.9056
X2.4429Y-2.9173
X2.4972Y-2.9788
X2.6034Y-2.0137
X2.7399Y-4.7779
X2.7933Y-2.9055
X2.8761Y-2.3576
X2.9205Y-4.2296
X2.9731Y-2.5872
X2.9744Y-4.3455
X2.9896Y-4.7729
X2.9916Y-3.1879
X2.9998Y-2.4568
X3.003Y-1.5059
X3.074Y-3.1339
X3.2124Y-3.2369
X3.247Y-2.188
X3.251Y-1.6949
X3.3293Y-1.8313
X3.3303Y-1.7912
X3.3948Y-3.3178
X3.4241Y-3.2885
X3.4291Y-2.2126
X3.5488Y-4.8624
X3.5821Y-1.8659
X3.6008Y-4.5037
X3.6014Y-2.8435
X3.6284Y-2.2944
X3.6309Y-3.374
X3.6371Y-4.5551
X3.7126Y-2.4567
X3.7431Y-3.0935
X3.7431Y-3.2333
X3.8031Y-3.4715
X3.8154Y-2.1799
X3.838Y-1.9791
X3.9088Y-2.3362
X3.9134Y-2.4724
X3.9162Y-1.9576
X3.9595Y-2.6108
X3.9646Y-2.2126
X3.9685Y-3.3927
X3.9911Y-3.8622
X4.0118Y-3.9272
X4.0512Y-2.248
X4.0551Y-3.3533
X4.0665Y-3.3951
X4.1567Y-2.409
X4.3396Y-2.5502
X4.37Y-4.7851
X4.5215Y-2.6241
X4.5384Y-3.0571
X4.5404Y-3.1388
X4.5404Y-3.2175
X4.5423Y-3.2805
X4.5443Y-3.3573
X4.6109Y-4.5759
X4.611Y-2.6146
X4.6211Y-4.2185
X4.623Y-4.1526
X4.625Y-3.6909
X4.625Y-4.0758
X4.626Y-3.7549
X4.626Y-3.8219
X4.6319Y-2.9498
X4.6339Y-3.0571
X4.6347Y-2.5774
X4.6378Y-3.2195
X4.6417Y-3.1398
X4.6427Y-3.2776
X4.6427Y-3.3583
X4.6801Y-4.0738
X4.6821Y-3.7037
X4.685Y-3.7736
X4.689Y-3.8533
X4.6959Y-4.1506
X4.6988Y-4.2195
X4.7215Y-3.0482
X4.7215Y-3.2165
X4.7274Y-3.2785
X4.7283Y-3.1378
X4.7303Y-3.3583
X4.7451Y-3.7628
X4.7461Y-3.7018
X4.7461Y-3.8327
X4.751Y-4.0758
X4.7569Y-3.5128
X4.7589Y-4.1506
X4.7697Y-4.2175
X4.7992Y-3.8533
X4.8002Y-3.7795
X4.8031Y-3.3543
X4.8071Y-3.2165
X4.8071Y-3.69
X4.8081Y-3.1348
X4.8091Y-2.5211
X4.811Y-3.2776
X4.814Y-3.0522
X4.8307Y-4.0748
X4.8307Y-4.1496
X4.8307Y-4.2205
X4.8701Y-3.7608
X4.874Y-3.813
X4.877Y-3.6909
X4.9016Y-3.1388
X4.9035Y-3.0531
X4.9085Y-3.2195
X4.9094Y-3.3583
X4.9144Y-3.2825
X5.0413Y-1.9794
X5.0856Y-2.8425
X5.265Y-4.6546
X5.3986Y-2.4369
T4
X2.82Y-4.46
X2.82Y-4.96
X2.92Y-4.46
X2.92Y-4.96
X3.02Y-4.46
X3.02Y-4.96
X3.12Y-4.46
X3.12Y-4.96
X3.22Y-4.46
X3.22Y-4.96
X3.32Y-4.46
X3.32Y-4.96
X3.42Y-4.46
X3.42Y-4.96
X3.52Y-4.46
X3.52Y-4.96
X4.51Y-4.46
X4.51Y-4.96
X4.61Y-4.46
X4.61Y-4.96
X4.71Y-4.46
X4.71Y-4.96
X4.81Y-4.46
X4.81Y-4.96
X4.91Y-4.46
X4.91Y-4.96
X5.01Y-4.46
X5.01Y-4.96
X5.11Y-4.46
X5.11Y-4.96
X5.21Y-4.46
X5.21Y-4.96
X1.97Y-4.46
X1.97Y-4.96
X2.07Y-4.46
X2.07Y-4.96
X2.17Y-4.46
X2.17Y-4.96
X2.27Y-4.46
X2.27Y-4.96
X2.37Y-4.46
X2.37Y-4.96
X2.47Y-4.46
X2.47Y-4.96
X2.57Y-4.46
X2.57Y-4.96
X2.67Y-4.46
X2.67Y-4.96
X3.67Y-4.46
X3.67Y-4.96
X3.77Y-4.46
X3.77Y-4.96
X3.87Y-4.46
X3.87Y-4.96
X3.97Y-4.46
X3.97Y-4.96
X4.07Y-4.46
X4.07Y-4.96
X4.17Y-4.46
X4.17Y-4.96
X4.27Y-4.46
X4.27Y-4.96
X4.37Y-4.46
X4.37Y-4.96
T5
X3.1816Y-1.6276
X3.3784Y-1.6276
T6
X2.369Y-4.6097
X2.369Y-4.7097
X2.369Y-4.8097
X4.81Y-4.6076
X4.81Y-4.7076
X4.81Y-4.8076
X2.2569Y-4.0566
X2.3569Y-4.0566
X2.4569Y-4.0566
X4.269Y-4.6087
X4.269Y-4.7087
X4.269Y-4.8087
X4.91Y-4.6076
X4.91Y-4.7076
X4.91Y-4.8076
X3.0984Y-1.9606
X3.0984Y-2.0606
X3.0984Y-2.1606
X3.0984Y-2.2606
X3.0984Y-2.3606
X3.0984Y-2.4606
X3.0984Y-2.5606
X3.0984Y-2.6606
X3.0984Y-2.7606
X3.0984Y-2.8606
X2.2569Y-4.2566
X2.3569Y-4.2566
X2.4569Y-4.2566
X5.11Y-4.6076
X5.11Y-4.7076
X5.11Y-4.8076
X5.6142Y-4.5531
X5.6142Y-4.6531
X3.87Y-5.2
X3.97Y-5.2
X4.07Y-5.2
X4.17Y-5.2
X1.9055Y-3.7835
X1.9055Y-3.8835
X4.069Y-4.6087
X4.069Y-4.7087
X4.069Y-4.8087
X2.17Y-5.2
X2.27Y-5.2
X2.37Y-5.2
X2.47Y-5.2
X3.35Y-3.05
X3.45Y-3.05
X3.55Y-3.05
X3.65Y-3.05
X2.469Y-4.6097
X2.469Y-4.7097
X2.469Y-4.8097
X2.29Y-1.6006
X2.39Y-1.6006
X2.49Y-1.6006
X2.59Y-1.6006
X2.69Y-1.6006
X2.79Y-1.6006
X2.89Y-1.6006
X2.99Y-1.6006
X3.959Y-4.6087
X3.959Y-4.7087
X3.959Y-4.8087
X3.219Y-4.6087
X3.219Y-4.7087
X3.219Y-4.8087
X2.5699Y-4.6093
X2.5699Y-4.7093
X2.5699Y-4.8093
X5.01Y-4.6076
X5.01Y-4.7076
X5.01Y-4.8076
X2.269Y-4.6097
X2.269Y-4.7097
X2.269Y-4.8097
X2.2569Y-4.1566
X2.3569Y-4.1566
X2.4569Y-4.1566
X3.02Y-5.2
X3.12Y-5.2
X3.22Y-5.2
X3.32Y-5.2
X5.215Y-5.2008
X5.315Y-5.2008
X3.419Y-4.6087
X3.419Y-4.7087
X3.419Y-4.8087
X2.2569Y-3.9566
X2.3569Y-3.9566
X2.4569Y-3.9566
X4.71Y-5.2
X4.81Y-5.2
X4.91Y-5.2
X5.01Y-5.2
X3.1407Y-4.2343
X3.2407Y-4.2343
X3.3407Y-4.2343
X3.4407Y-4.2343
X3.319Y-4.6087
X3.319Y-4.7087
X3.319Y-4.8087
X1.9055Y-3.5787
X1.9055Y-3.6787
X1.9Y-2.7756
X2.Y-2.7756
X2.1Y-2.7756
X2.2Y-2.7756
X2.3Y-2.7756
X2.4Y-2.7756
X2.5Y-2.7756
X2.6Y-2.7756
X2.7Y-2.7756
X2.8Y-2.7756
X4.169Y-4.6087
X4.169Y-4.7087
X4.169Y-4.8087
X5.6152Y-4.8553
X5.6152Y-4.9553
X3.119Y-4.6087
X3.119Y-4.7087
X3.119Y-4.8087
T7
X3.42Y-2.43
X3.42Y-2.53
X3.42Y-2.63
X3.42Y-2.73
X3.52Y-2.43
X3.52Y-2.53
X3.52Y-2.63
X3.52Y-2.73
T8
X5.4281Y-3.9203
X5.4281Y-4.1203
X5.4281Y-3.498
X5.4281Y-3.698
X5.4281Y-2.6752
X5.4281Y-2.8752
X5.4281Y-3.0752
X5.4281Y-3.2752
T3
X3.1422Y-1.5351G85X3.1422Y-1.5075
G05
X3.4178Y-1.5075G85X3.4178Y-1.5351
G05
T0
M30
